<svg fill="none" viewBox="0 0 24 24" xmlns="http://www.w3.org/2000/svg"><rect fill="#daffe2" height="22" rx="6" width="22" x="1" y="1"/><path d="m15.667 6.042c-2.334 0-3.535 1.601-3.669 1.784-.13-.183-1.33-1.784-3.665-1.784-2.09 0-3.666 1.708-3.666 3.972 0 1.562.865 4.628 6.665 7.605.42.215.917.215 1.336 0 5.8-2.977 6.665-6.043 6.665-7.605 0-2.264-1.576-3.972-3.666-3.972z" fill="#54da72"/><path d="m15.896 8.333h-.23a3.67 3.67 0 0 0 -3.666 3.667v1.826h.994c1.979-.042 3.59-1.684 3.59-3.66v-1.144a.689.689 0 0 0 -.688-.688z" fill="#acf5bc"/><path d="m9.25 10.167h-1.146a.689.689 0 0 0 -.687.687v.23a2.753 2.753 0 0 0 2.75 2.75h1.847l-.018-.966a2.762 2.762 0 0 0 -2.746-2.701z" fill="#acf5bc"/><g fill="#098d26"><path d="m11.714 14.19-2.292-1.832a.46.46 0 0 1 .573-.717l1.94 1.553 2.005-2.405a.46.46 0 0 1 .704.587l-2.292 2.75a.458.458 0 0 1 -.638.065z"/><path d="m12.199 18.371a.455.455 0 0 1 -.398 0c-6.606-3.174-7.593-6.598-7.593-8.357 0-2.484 1.812-4.43 4.125-4.43 1.875 0 3.095.955 3.667 1.542a5.084 5.084 0 0 1 3.667-1.543c2.313 0 4.125 1.947 4.125 4.43 0 1.76-.987 5.184-7.593 8.358zm-3.866-11.871c-1.828 0-3.208 1.51-3.208 3.514 0 1.526.9 4.508 6.875 7.435 5.975-2.927 6.875-5.909 6.875-7.435 0-2.004-1.38-3.514-3.208-3.514-2.152 0-3.245 1.526-3.291 1.59-.17.246-.582.246-.752 0-.046-.064-1.14-1.59-3.29-1.59z"/><path d="m17.042 10.167a4.13 4.13 0 0 1 -4.125 4.125h-.917a.458.458 0 0 1 -.458-.459v-1.833a4.13 4.13 0 0 1 4.125-4.125h.229c.632 0 1.146.514 1.146 1.146zm-4.584 3.208h.459a3.212 3.212 0 0 0 3.208-3.208v-1.147a.23.23 0 0 0 -.23-.23h-.228a3.212 3.212 0 0 0 -3.209 3.21z"/><path d="m12.458 13.833a.458.458 0 0 1 -.458.459h-1.833a3.212 3.212 0 0 1 -3.209-3.209v-.229c0-.632.514-1.146 1.146-1.146h1.146a3.212 3.212 0 0 1 3.208 3.209zm-4.354-3.208a.23.23 0 0 0 -.229.23v.228a2.294 2.294 0 0 0 2.292 2.292h1.375v-.458a2.294 2.294 0 0 0 -2.292-2.292z"/><path d="m12 18.417a.458.458 0 0 1 -.458-.459v-4.125a.458.458 0 1 1 .916 0v4.125a.458.458 0 0 1 -.458.459z"/></g></svg>